<svg xmlns="http://www.w3.org/2000/svg" version="1.1" viewBox="-5.0 -10.0 110.0 135.0">
 <path d="m91.539 45.141c-0.40234-0.94922-0.97656-1.8047-1.7109-2.5352-0.73438-0.73438-1.5859-1.3086-2.5352-1.7109-0.98438-0.41406-2.0273-0.625-3.1055-0.625h-68.375c-1.0781 0-2.1211 0.21094-3.1055 0.625-0.94922 0.40234-1.8047 0.97656-2.5352 1.7109-0.73438 0.73047-1.3086 1.5859-1.7109 2.5352-0.41797 0.98438-0.625 2.0312-0.625 3.1055v3.5078c0 1.0781 0.21094 2.1211 0.625 3.1055 0.40234 0.94922 0.97656 1.8047 1.7109 2.5352 0.73047 0.73438 1.5859 1.3086 2.5352 1.7109 0.98438 0.41406 2.0273 0.625 3.1055 0.625h68.375c1.0781 0 2.1211-0.21094 3.1055-0.625 0.95312-0.40234 1.8047-0.97656 2.5352-1.7109 0.73438-0.73047 1.3086-1.5859 1.7109-2.5352 0.41406-0.98438 0.625-2.0312 0.625-3.1055v-3.5078c0-1.0742-0.21094-2.1211-0.625-3.1055zm-0.71484 6.6133c0 3.6602-2.9766 6.6328-6.6367 6.6328h-68.375c-3.6562 0-6.6328-2.9766-6.6328-6.6328v-3.5078c0-3.6602 2.9766-6.6367 6.6328-6.6367l68.375 0.003906c3.6602 0 6.6367 2.9766 6.6367 6.6367z"/>
 <path d="m22.801 48.191-1.7188-3.4883-1.7227 3.4883-3.8438 0.55859 2.7812 2.7148-0.65625 3.832 3.4414-1.8125 3.4414 1.8125-0.65625-3.832 2.7812-2.7148z"/>
 <path d="m37.262 48.191-1.7227-3.4883-1.7188 3.4883-3.8477 0.55859 2.7852 2.7148-0.66016 3.832 3.4414-1.8125 3.4414 1.8125-0.65625-3.832 2.7852-2.7148z"/>
 <path d="m51.719 48.191-1.7188-3.4883-1.7188 3.4883-3.8516 0.55859 2.7852 2.7148-0.65625 3.832 3.4414-1.8125 3.4414 1.8125-0.66016-3.832 2.7891-2.7148z"/>
 <path d="m66.18 48.191-1.7188-3.4883-1.7227 3.4883-3.8477 0.55859 2.7852 2.7148-0.65625 3.832 3.4414-1.8125 3.4375 1.8125-0.65625-3.832 2.7852-2.7148z"/>
 <path d="m78.922 44.703-1.7227 3.4883-3.8477 0.55859 2.7812 2.7148-0.65625 3.832 3.4453-1.8125 3.4375 1.8125-0.65625-3.832 2.7812-2.7148-3.8438-0.55859z"/>
<text x="0.0" y="117.5" font-size="5.0" font-weight="bold" font-family="Arbeit Regular, Helvetica, Arial-Unicode, Arial, Sans-serif" fill="#000000">Created by LeonartStudio</text><text x="0.0" y="122.5" font-size="5.0" font-weight="bold" font-family="Arbeit Regular, Helvetica, Arial-Unicode, Arial, Sans-serif" fill="#000000">from Noun Project</text></svg>